name rise37.2698peak67.6939fall79.5734.mot
datacolumns 19
datarows 17
range 18.64993300000000 18.67661400000000
endheader
time	ground_force1_vx	ground_force1_vy	ground_force1_vz	ground_force1_px	ground_force1_py	ground_force1_pz	ground_force2_vx	ground_force2_vy	ground_force2_vz	ground_force2_px	ground_force2_py	ground_force2_pz	ground_torque1_x	ground_torque1_y	ground_torque1_z	ground_torque2_x	ground_torque2_y	ground_torque2_z	
18.64993300000000	-10.82975400000000	46.81837300000000	-10.89892500000000	0.32203700000000	0.00000000000000	0.09042300000000	-58.20599600000000	782.04770699999995	-40.81140700000000	0.12043100000000	0.00000000000000	-0.07392400000000	0.00000000000000	-6.78778400000000	0.00000000000000	0.00000000000000	-15.88269400000000	0.00000000000000	
18.65159600000000	-11.54862800000000	53.80820000000000	-12.01333700000000	0.32619000000000	0.00000000000000	0.09127300000000	-59.08647800000000	779.15479700000003	-40.29301600000000	0.11943300000000	0.00000000000000	-0.07382000000000	0.00000000000000	-7.57682800000000	0.00000000000000	0.00000000000000	-15.84586200000000	0.00000000000000	
18.65326300000000	-12.04588500000000	60.80269300000000	-12.99754300000000	0.33005600000000	0.00000000000000	0.09204000000000	-59.98018700000000	776.16389400000003	-39.76489700000000	0.11843300000000	0.00000000000000	-0.07371400000000	0.00000000000000	-8.30300800000000	0.00000000000000	0.00000000000000	-15.81253900000000	0.00000000000000	
18.65493000000000	-12.30737300000000	67.73413200000000	-13.83498200000000	0.33368200000000	0.00000000000000	0.09273700000000	-60.88574800000000	773.07161199999996	-39.22706900000000	0.11743100000000	0.00000000000000	-0.07360800000000	0.00000000000000	-8.95451700000000	0.00000000000000	0.00000000000000	-15.78253700000000	0.00000000000000	
18.65661000000000	-12.33014100000000	74.55855600000000	-14.51776000000000	0.33710600000000	0.00000000000000	0.09337300000000	-61.80169000000000	769.87449300000003	-38.67954600000000	0.11643000000000	0.00000000000000	-0.07350000000000	0.00000000000000	-9.52463000000000	0.00000000000000	0.00000000000000	-15.75564500000000	0.00000000000000	
18.65826600000000	-12.12129800000000	81.25556000000000	-15.04603500000000	0.34035500000000	0.00000000000000	0.09395600000000	-62.72644300000000	766.56901400000004	-38.12234300000000	0.11542900000000	0.00000000000000	-0.07339000000000	0.00000000000000	-10.01147900000000	0.00000000000000	0.00000000000000	-15.73163200000000	0.00000000000000	
18.65993000000000	-11.69624500000000	87.82618400000000	-15.42684900000000	0.34345600000000	0.00000000000000	0.09449300000000	-63.65834000000000	763.15160600000002	-37.55547300000000	0.11443200000000	0.00000000000000	-0.07327900000000	0.00000000000000	-10.41745600000000	0.00000000000000	0.00000000000000	-15.71024200000000	0.00000000000000	
18.66161200000000	-11.07652000000000	94.28940000000000	-15.67259100000000	0.34642700000000	0.00000000000000	0.09498900000000	-64.59562200000001	759.61867099999995	-36.97895300000000	0.11343900000000	0.00000000000000	-0.07316700000000	0.00000000000000	-10.74837500000000	0.00000000000000	0.00000000000000	-15.69120300000000	0.00000000000000	
18.66326300000000	-10.28751200000000	100.67772900000000	-15.79929000000000	0.34928500000000	0.00000000000000	0.09544900000000	-65.53643700000001	755.96658900000000	-36.39280200000000	0.11245200000000	0.00000000000000	-0.07305300000000	0.00000000000000	-11.01249400000000	0.00000000000000	0.00000000000000	-15.67422000000000	0.00000000000000	
18.66493400000000	-9.35624800000000	107.03250300000001	-15.82490900000000	0.35204300000000	0.00000000000000	0.09587600000000	-66.47884700000000	752.19174299999997	-35.79704600000000	0.11147300000000	0.00000000000000	-0.07293700000000	0.00000000000000	-11.21950400000000	0.00000000000000	0.00000000000000	-15.65898000000000	0.00000000000000	
18.66661900000000	-8.30942700000000	113.39922300000001	-15.76777100000000	0.35471200000000	0.00000000000000	0.09627300000000	-67.42083200000000	748.29052600000000	-35.19171800000000	0.11050200000000	0.00000000000000	-0.07282000000000	0.00000000000000	-11.37957700000000	0.00000000000000	0.00000000000000	-15.64515300000000	0.00000000000000	
18.66826500000000	-7.17180300000000	119.82336700000000	-15.64522900000000	0.35730100000000	0.00000000000000	0.09664400000000	-68.36028899999999	744.25936600000000	-34.57686000000000	0.10954300000000	0.00000000000000	-0.07270100000000	0.00000000000000	-11.50253000000000	0.00000000000000	0.00000000000000	-15.63239300000000	0.00000000000000	
18.66992700000000	-5.96500100000000	126.34689000000000	-15.47263300000000	0.35981800000000	0.00000000000000	0.09699100000000	-69.29504300000001	740.09473400000002	-33.95252400000000	0.10859600000000	0.00000000000000	-0.07258000000000	0.00000000000000	-11.59716500000000	0.00000000000000	0.00000000000000	-15.62033500000000	0.00000000000000	
18.67159400000000	-4.70676100000000	133.00557900000001	-15.26263400000000	0.36226900000000	0.00000000000000	0.09731600000000	-70.22284900000000	735.79316700000004	-33.31877700000000	0.10766300000000	0.00000000000000	-0.07245700000000	0.00000000000000	-11.67078700000000	0.00000000000000	0.00000000000000	-15.60860500000000	0.00000000000000	
18.67326800000000	-3.41061500000000	139.82730699999999	-15.02480900000000	0.36465800000000	0.00000000000000	0.09762100000000	-71.14139600000000	731.35128099999997	-32.67570000000000	0.10674500000000	0.00000000000000	-0.07233200000000	0.00000000000000	-11.72893000000000	0.00000000000000	0.00000000000000	-15.59681000000000	0.00000000000000	
18.67493300000000	-2.08592100000000	146.83115699999999	-14.76558000000000	0.36699000000000	0.00000000000000	0.09790800000000	-72.04831799999999	726.76579100000004	-32.02339100000000	0.10584400000000	0.00000000000000	-0.07220500000000	0.00000000000000	-11.77525500000000	0.00000000000000	0.00000000000000	-15.58455200000000	0.00000000000000	
18.67661400000000	-0.73820400000000	154.02732399999999	-14.48838400000000	0.36926700000000	0.00000000000000	0.09817800000000	-72.94119400000000	722.03353000000004	-31.36196700000000	0.10496200000000	0.00000000000000	-0.07207500000000	0.00000000000000	-11.81160700000000	0.00000000000000	0.00000000000000	-15.57141800000000	0.00000000000000	
